<mxfile host="app.diagrams.net" modified="2024-06-24T02:33:39.189Z" agent="Mozilla/5.0 (Windows NT 10.0; Win64; x64) AppleWebKit/537.36 (KHTML, like Gecko) Chrome/126.0.0.0 Safari/537.36" etag="UYngzUFSKE4_ViclCp28" version="24.5.5" type="google">
  <diagram id="ZIbdoXWf_325Ph_qxELx" name="Página-2">
    <mxGraphModel grid="1" page="1" gridSize="10" guides="1" tooltips="1" connect="1" arrows="1" fold="1" pageScale="1" pageWidth="827" pageHeight="1169" math="0" shadow="0">
      <root>
        <mxCell id="0" />
        <mxCell id="1" parent="0" />
        <mxCell id="III9xUrhtxmisWl-_8ej-19" style="edgeStyle=orthogonalEdgeStyle;rounded=0;orthogonalLoop=1;jettySize=auto;html=1;" edge="1" parent="1" source="III9xUrhtxmisWl-_8ej-1" target="III9xUrhtxmisWl-_8ej-8">
          <mxGeometry relative="1" as="geometry">
            <Array as="points">
              <mxPoint x="580" y="245" />
              <mxPoint x="580" y="245" />
            </Array>
          </mxGeometry>
        </mxCell>
        <mxCell id="III9xUrhtxmisWl-_8ej-1" value="Servidor de Bases de Datos" style="verticalAlign=top;align=left;spacingTop=8;spacingLeft=2;spacingRight=12;shape=cube;size=10;direction=south;fontStyle=4;html=1;whiteSpace=wrap;" vertex="1" parent="1">
          <mxGeometry x="40" y="40" width="490" height="330" as="geometry" />
        </mxCell>
        <mxCell id="III9xUrhtxmisWl-_8ej-2" value="&amp;lt;&amp;lt;executionEnvironment&amp;gt;&amp;gt;" style="verticalAlign=top;align=left;spacingTop=8;spacingLeft=2;spacingRight=12;shape=cube;size=10;direction=south;fontStyle=4;html=1;whiteSpace=wrap;" vertex="1" parent="1">
          <mxGeometry x="112.5" y="90" width="345" height="230" as="geometry" />
        </mxCell>
        <mxCell id="III9xUrhtxmisWl-_8ej-3" value="&amp;lt;&amp;lt;executionEnvironment&amp;gt;&amp;gt;" style="verticalAlign=top;align=left;spacingTop=8;spacingLeft=2;spacingRight=12;shape=cube;size=10;direction=south;fontStyle=4;html=1;whiteSpace=wrap;" vertex="1" parent="1">
          <mxGeometry x="182.5" y="145" width="205" height="155" as="geometry" />
        </mxCell>
        <mxCell id="III9xUrhtxmisWl-_8ej-4" value="Linux" style="text;align=center;fontStyle=1;verticalAlign=middle;spacingLeft=3;spacingRight=3;strokeColor=none;rotatable=0;points=[[0,0.5],[1,0.5]];portConstraint=eastwest;html=1;" vertex="1" parent="1">
          <mxGeometry x="245" y="119" width="80" height="26" as="geometry" />
        </mxCell>
        <mxCell id="III9xUrhtxmisWl-_8ej-5" value="MongoDB" style="text;align=center;fontStyle=1;verticalAlign=middle;spacingLeft=3;spacingRight=3;strokeColor=none;rotatable=0;points=[[0,0.5],[1,0.5]];portConstraint=eastwest;html=1;" vertex="1" parent="1">
          <mxGeometry x="245" y="170" width="80" height="26" as="geometry" />
        </mxCell>
        <mxCell id="III9xUrhtxmisWl-_8ej-6" value="«Artifact»&lt;br&gt;&lt;b&gt;*.bson&lt;/b&gt;" style="html=1;dropTarget=0;whiteSpace=wrap;" vertex="1" parent="1">
          <mxGeometry x="202.5" y="196" width="165" height="84" as="geometry" />
        </mxCell>
        <mxCell id="III9xUrhtxmisWl-_8ej-7" value="" style="shape=module;jettyWidth=8;jettyHeight=4;" vertex="1" parent="III9xUrhtxmisWl-_8ej-6">
          <mxGeometry x="1" width="20" height="20" relative="1" as="geometry">
            <mxPoint x="-27" y="7" as="offset" />
          </mxGeometry>
        </mxCell>
        <mxCell id="III9xUrhtxmisWl-_8ej-23" style="edgeStyle=orthogonalEdgeStyle;rounded=0;orthogonalLoop=1;jettySize=auto;html=1;" edge="1" parent="1" source="III9xUrhtxmisWl-_8ej-8" target="III9xUrhtxmisWl-_8ej-20">
          <mxGeometry relative="1" as="geometry" />
        </mxCell>
        <mxCell id="III9xUrhtxmisWl-_8ej-8" value="Block" style="verticalAlign=top;align=left;spacingTop=8;spacingLeft=2;spacingRight=12;shape=cube;size=10;direction=south;fontStyle=4;html=1;whiteSpace=wrap;" vertex="1" parent="1">
          <mxGeometry x="760" y="40" width="520" height="410" as="geometry" />
        </mxCell>
        <mxCell id="III9xUrhtxmisWl-_8ej-9" value="Servidor Web" style="text;align=center;fontStyle=1;verticalAlign=middle;spacingLeft=3;spacingRight=3;strokeColor=none;rotatable=0;points=[[0,0.5],[1,0.5]];portConstraint=eastwest;html=1;" vertex="1" parent="1">
          <mxGeometry x="980" y="50" width="80" height="26" as="geometry" />
        </mxCell>
        <mxCell id="III9xUrhtxmisWl-_8ej-11" value="&amp;lt;&amp;lt;executionEnvironment&amp;gt;&amp;gt;" style="verticalAlign=top;align=left;spacingTop=8;spacingLeft=2;spacingRight=12;shape=cube;size=10;direction=south;fontStyle=4;html=1;whiteSpace=wrap;" vertex="1" parent="1">
          <mxGeometry x="823.5" y="119" width="393" height="290" as="geometry" />
        </mxCell>
        <mxCell id="III9xUrhtxmisWl-_8ej-12" value="Linux" style="text;align=center;fontStyle=1;verticalAlign=middle;spacingLeft=3;spacingRight=3;strokeColor=none;rotatable=0;points=[[0,0.5],[1,0.5]];portConstraint=eastwest;html=1;" vertex="1" parent="1">
          <mxGeometry x="980" y="160" width="80" height="26" as="geometry" />
        </mxCell>
        <mxCell id="III9xUrhtxmisWl-_8ej-13" value="&amp;lt;&amp;lt;executionEnvironment&amp;gt;&amp;gt;" style="verticalAlign=top;align=left;spacingTop=8;spacingLeft=2;spacingRight=12;shape=cube;size=10;direction=south;fontStyle=4;html=1;whiteSpace=wrap;" vertex="1" parent="1">
          <mxGeometry x="847.5" y="179" width="342.5" height="211" as="geometry" />
        </mxCell>
        <mxCell id="III9xUrhtxmisWl-_8ej-14" value="Tomcat" style="text;align=center;fontStyle=1;verticalAlign=middle;spacingLeft=3;spacingRight=3;strokeColor=none;rotatable=0;points=[[0,0.5],[1,0.5]];portConstraint=eastwest;html=1;" vertex="1" parent="1">
          <mxGeometry x="978.75" y="210" width="80" height="26" as="geometry" />
        </mxCell>
        <mxCell id="III9xUrhtxmisWl-_8ej-15" value="«Artifact»&lt;br&gt;&lt;b&gt;*.html .class .js .xml&lt;/b&gt;" style="html=1;dropTarget=0;whiteSpace=wrap;" vertex="1" parent="1">
          <mxGeometry x="929" y="260" width="180" height="90" as="geometry" />
        </mxCell>
        <mxCell id="III9xUrhtxmisWl-_8ej-16" value="" style="shape=module;jettyWidth=8;jettyHeight=4;" vertex="1" parent="III9xUrhtxmisWl-_8ej-15">
          <mxGeometry x="1" width="20" height="20" relative="1" as="geometry">
            <mxPoint x="-27" y="7" as="offset" />
          </mxGeometry>
        </mxCell>
        <mxCell id="III9xUrhtxmisWl-_8ej-20" value="&amp;lt;&amp;lt;Device&amp;gt;&amp;gt;" style="verticalAlign=top;align=left;spacingTop=8;spacingLeft=2;spacingRight=12;shape=cube;size=10;direction=south;fontStyle=4;html=1;whiteSpace=wrap;" vertex="1" parent="1">
          <mxGeometry x="760" y="520" width="520" height="360" as="geometry" />
        </mxCell>
        <mxCell id="III9xUrhtxmisWl-_8ej-21" value="" style="verticalAlign=top;align=left;spacingTop=8;spacingLeft=2;spacingRight=12;shape=cube;size=10;direction=south;fontStyle=4;html=1;whiteSpace=wrap;" vertex="1" parent="1">
          <mxGeometry x="899.5" y="610" width="241" height="180" as="geometry" />
        </mxCell>
        <mxCell id="III9xUrhtxmisWl-_8ej-22" value="Client" style="text;align=center;fontStyle=1;verticalAlign=middle;spacingLeft=3;spacingRight=3;strokeColor=none;rotatable=0;points=[[0,0.5],[1,0.5]];portConstraint=eastwest;html=1;" vertex="1" parent="1">
          <mxGeometry x="978.75" y="572" width="80" height="26" as="geometry" />
        </mxCell>
        <mxCell id="III9xUrhtxmisWl-_8ej-24" value="«Artifact»&lt;br&gt;&lt;b&gt;*.html .class .js .xml&lt;/b&gt;" style="html=1;dropTarget=0;whiteSpace=wrap;" vertex="1" parent="1">
          <mxGeometry x="920" y="660" width="180" height="90" as="geometry" />
        </mxCell>
        <mxCell id="III9xUrhtxmisWl-_8ej-25" value="" style="shape=module;jettyWidth=8;jettyHeight=4;" vertex="1" parent="III9xUrhtxmisWl-_8ej-24">
          <mxGeometry x="1" width="20" height="20" relative="1" as="geometry">
            <mxPoint x="-27" y="7" as="offset" />
          </mxGeometry>
        </mxCell>
        <mxCell id="III9xUrhtxmisWl-_8ej-26" value="Navegador" style="text;align=center;fontStyle=1;verticalAlign=middle;spacingLeft=3;spacingRight=3;strokeColor=none;rotatable=0;points=[[0,0.5],[1,0.5]];portConstraint=eastwest;html=1;" vertex="1" parent="1">
          <mxGeometry x="970" y="620" width="80" height="26" as="geometry" />
        </mxCell>
        <mxCell id="2MD5otcRQNG8yUbytozQ-1" value="TCP/IP 27017" style="text;html=1;align=center;verticalAlign=middle;whiteSpace=wrap;rounded=0;" vertex="1" parent="1">
          <mxGeometry x="590" y="223" width="110" height="30" as="geometry" />
        </mxCell>
        <mxCell id="2MD5otcRQNG8yUbytozQ-2" value="HTTP 80" style="text;html=1;align=center;verticalAlign=middle;whiteSpace=wrap;rounded=0;" vertex="1" parent="1">
          <mxGeometry x="940" y="460" width="60" height="30" as="geometry" />
        </mxCell>
        <mxCell id="2MD5otcRQNG8yUbytozQ-3" value="HTTPS 443" style="text;html=1;align=center;verticalAlign=middle;whiteSpace=wrap;rounded=0;" vertex="1" parent="1">
          <mxGeometry x="1030" y="460" width="60" height="30" as="geometry" />
        </mxCell>
      </root>
    </mxGraphModel>
  </diagram>
</mxfile>
